<?xml version="1.0" encoding="UTF-8"?>
<svg xmlns="http://www.w3.org/2000/svg" style="stroke-dasharray:none; shape-rendering:auto; font-family:'Arial'; text-rendering:auto; fill-opacity:1; color-interpolation:auto; color-rendering:auto; font-size:12; fill:black; stroke:black; image-rendering:auto; stroke-miterlimit:10; stroke-linecap:square; stroke-linejoin:miter; font-style:normal; stroke-width:1; stroke-dashoffset:0; font-weight:normal; stroke-opacity:1;" contentScriptType="text/ecmascript" preserveAspectRatio="xMidYMid meet" zoomAndPan="magnify" version="1.0" contentStyleType="text/css" xml:xlink="http://www.w3.org/1999/xlink" width="1271" height="1011"><rect x="10" y="0" width="1261" height="1011" ry="0" rx="0" style="stroke:#000000; fill:#FFFFFF" /><rect x="40" y="808" width="1231" height="203" ry="0" rx="0" style="stroke:#000000; fill:#C0C0C0" /><g componentSequence="55"><text x="-909" y="47" transform="rotate(270)" text-anchor="middle" style="font-weight:bold;font-size:10px;stroke:none; fill:#434343"><tspan dy="14" x="-909">PMO</tspan></text></g><rect x="40" y="202" width="1231" height="202" ry="0" rx="0" style="stroke:#000000; fill:#DFDFDF" /><g componentSequence="5"><text x="-303" y="47" transform="rotate(270)" text-anchor="middle" style="font-weight:bold;font-size:10px;stroke:none; fill:#434343"><tspan dy="14" x="-303">Gerência</tspan></text></g><rect x="40" y="606" width="1231" height="202" ry="0" rx="0" style="stroke:#000000; fill:#DFDFDF" /><g componentSequence="4"><text x="-707" y="47" transform="rotate(270)" text-anchor="middle" style="font-weight:bold;font-size:10px;stroke:none; fill:#434343"><tspan dy="14" x="-707">R H</tspan></text></g><rect x="40" y="404" width="1231" height="202" ry="0" rx="0" style="stroke:#000000; fill:#C0C0C0" /><g componentSequence="3"><text x="-505" y="47" transform="rotate(270)" text-anchor="middle" style="font-weight:bold;font-size:10px;stroke:none; fill:#434343"><tspan dy="14" x="-505">Coordenação</tspan></text></g><rect x="40" y="0" width="1231" height="202" ry="0" rx="0" style="stroke:#000000; fill:#C0C0C0" /><g componentSequence="2"><text x="-101" y="47" transform="rotate(270)" text-anchor="middle" style="font-weight:bold;font-size:10px;stroke:none; fill:#434343"><tspan dy="14" x="-101">Solicitante</tspan></text></g><g componentSequence="1"><text x="-505" y="17" transform="rotate(270)" text-anchor="middle" style="font-weight:bold;font-size:10px;stroke:none; fill:#434343"><tspan dy="14" x="-505">Solicitação de Férias</tspan></text></g><g sequence="4"><ellipse cx="149" cy="105" rx="17" ry="17" stroke-width="1" style="fill:url(#linearGradient66FF6696FF96B6FFB6_2079193036);" stroke="336633" /></g><g sequence="5"><rect x="470" y="466" width="106" height="84" ry="5" rx="5" style="fill:url(#linearGradientF8FBFEEDF5FCDEEDFAD4E7F8E2E5E9_1965688513);" stroke="191970" /></g><g componentSequence="5"><text x="523" y="481" text-anchor="middle" style="font-weight:bold;font-size:10px;stroke:none; fill:#333399"><tspan dy="14" x="523">Aprovação</tspan><tspan dy="14" x="523">Coordenação</tspan><tspan dy="14" x="523">TSM</tspan></text></g><g sequence="15"><rect x="470" y="235" width="106" height="70" ry="5" rx="5" style="fill:url(#linearGradientF8FBFEEDF5FCDEEDFAD4E7F8E2E5E9_1897241788);" stroke="191970" /></g><g componentSequence="15"><text x="523" y="250" text-anchor="middle" style="font-weight:bold;font-size:10px;stroke:none; fill:#333399"><tspan dy="14" x="523">Aprovação</tspan><tspan dy="14" x="523">Gerência TSM</tspan></text></g><g sequence="17"><polygon points=" 780 250 810 220 840 250 810 280 780 250" style="fill:url(#linearGradientFAFBFCFFFFCC_873925882);" stroke="000000" /></g><g componentSequence="17"><text x="810" y="290" text-anchor="middle" style="font-weight:bold;font-size:10px;stroke:none; fill:#333399"><tspan dy="14" x="810">Aprovad</tspan><tspan dy="14" x="810">o?</tspan></text></g><g sequence="19"><rect x="760" y="709" width="106" height="56" ry="5" rx="5" style="fill:url(#linearGradientF8FBFEEDF5FCDEEDFAD4E7F8E2E5E9_542170659);" stroke="191970" /></g><g componentSequence="19"><text x="813" y="726" text-anchor="middle" style="font-weight:bold;font-size:10px;stroke:none; fill:#333399"><tspan dy="14" x="813">Notifica RH</tspan></text></g><g sequence="22"><ellipse cx="917" cy="737" rx="17" ry="17" stroke-width="3" style="fill:url(#linearGradientFF6666FF9696FFB6B6_99211494);" stroke="993333" /></g><g sequence="24"><rect x="1030" y="841" width="106" height="70" ry="5" rx="5" style="fill:url(#linearGradientF8FBFEEDF5FCDEEDFAD4E7F8E2E5E9_1480873115);" stroke="191970" /></g><g componentSequence="24"><text x="1083" y="856" text-anchor="middle" style="font-weight:bold;font-size:10px;stroke:none; fill:#333399"><tspan dy="14" x="1083">Notifica PMO</tspan><tspan dy="14" x="1083">TSM</tspan></text></g><g sequence="26"><ellipse cx="1189" cy="876" rx="17" ry="17" stroke-width="3" style="fill:url(#linearGradientFF6666FF9696FFB6B6_1413018549);" stroke="993333" /></g><g sequence="40"><rect x="630" y="466" width="105" height="84" ry="5" rx="5" style="fill:url(#linearGradientF8FBFEEDF5FCDEEDFAD4E7F8E2E5E9_1925160663);" stroke="191970" /></g><g componentSequence="40"><text x="682" y="481" text-anchor="middle" style="font-weight:bold;font-size:10px;stroke:none; fill:#333399"><tspan dy="14" x="682">Aprovação</tspan><tspan dy="14" x="682">Coordenação</tspan><tspan dy="14" x="682">TSUL</tspan></text></g><g sequence="42"><polygon points=" 120 250 150 220 180 250 150 280 120 250" style="fill:url(#linearGradientFAFBFCFFFFCC_970610318);" stroke="000000" /></g><g componentSequence="42"><text x="150" y="290" text-anchor="middle" style="font-weight:bold;font-size:10px;stroke:none; fill:#333399"><tspan dy="14" x="150">TSM ou</tspan><tspan dy="14" x="150">TSUL</tspan></text></g><g sequence="45"><rect x="350" y="310" width="105" height="70" ry="5" rx="5" style="fill:url(#linearGradientF8FBFEEDF5FCDEEDFAD4E7F8E2E5E9_1128283554);" stroke="191970" /></g><g componentSequence="45"><text x="402" y="325" text-anchor="middle" style="font-weight:bold;font-size:10px;stroke:none; fill:#333399"><tspan dy="14" x="402">Aprovação</tspan><tspan dy="14" x="402">Gerência TSUL</tspan></text></g><g sequence="47"><rect x="920" y="920" width="105" height="70" ry="5" rx="5" style="fill:url(#linearGradientF8FBFEEDF5FCDEEDFAD4E7F8E2E5E9_1349962532);" stroke="191970" /></g><g componentSequence="47"><text x="972" y="935" text-anchor="middle" style="font-weight:bold;font-size:10px;stroke:none; fill:#333399"><tspan dy="14" x="972">Notifica PMO</tspan><tspan dy="14" x="972">TSUL</tspan></text></g><g sequence="53"><ellipse cx="1089" cy="954" rx="17" ry="17" stroke-width="3" style="fill:url(#linearGradientFF6666FF9696FFB6B6_1588707035);" stroke="993333" /></g><g componentSequence="18"><text x="688" y="190" style="font-size:10px;font-weight:none;stroke:none; fill:#333399" text-anchor="left" /></g><g componentSequence="21"><text x="555" y="25" style="font-size:10px;font-weight:none;stroke:none; fill:#333399" text-anchor="left" /></g><g componentSequence="23"><text x="893" y="657" style="font-size:10px;font-weight:none;stroke:none; fill:#333399" text-anchor="left" /></g><g componentSequence="27"><text x="1164" y="796" style="font-size:10px;font-weight:none;stroke:none; fill:#333399" text-anchor="left" /></g><g componentSequence="29"><text x="687" y="301" style="font-size:10px;font-weight:none;stroke:none; fill:#333399" text-anchor="left" /></g><g componentSequence="37"><text x="533" y="305" style="font-size:10px;font-weight:none;stroke:none; fill:#333399" text-anchor="left" /></g><g componentSequence="38"><text x="821" y="435" style="font-size:10px;font-weight:none;stroke:none; fill:#333399" text-anchor="left" /></g><g componentSequence="39"><text x="1093" y="354" style="font-size:10px;font-weight:none;stroke:none; fill:#333399" text-anchor="left" /></g><g componentSequence="41"><text x="754" y="314" style="font-size:10px;font-weight:none;stroke:none; fill:#333399" text-anchor="left" /></g><g componentSequence="43"><text x="159" y="91" style="font-size:10px;font-weight:none;stroke:none; fill:#333399" text-anchor="left" /></g><g componentSequence="44"><text x="335" y="190" style="font-size:10px;font-weight:none;stroke:none; fill:#333399" text-anchor="left" /></g><g componentSequence="46"><text x="251" y="264" style="font-size:10px;font-weight:none;stroke:none; fill:#333399" text-anchor="left" /></g><g componentSequence="50"><text x="467" y="504" style="font-size:10px;font-weight:none;stroke:none; fill:#333399" text-anchor="left" /></g><g componentSequence="51"><text x="634" y="265" style="font-size:10px;font-weight:none;stroke:none; fill:#333399" text-anchor="left" /></g><g componentSequence="52"><text x="978" y="453" style="font-size:10px;font-weight:none;stroke:none; fill:#333399" text-anchor="left" /></g><g componentSequence="54"><text x="1058" y="874" style="font-size:10px;font-weight:none;stroke:none; fill:#333399" text-anchor="left" /></g><path style="fill:none; stroke:#000000;stroke-width:1" d="M809.0 219.0 L809.0 105.0 L167.0 105.0" /><polygon style="fill:#000000; stroke:#000000;" points=" 177 110 167 105 177 100 175 105" /><path style="fill:none; stroke:#000000;stroke-width:1" d="M523.0 465.0 L523.0 305.0" /><polygon style="fill:#000000; stroke:#000000;" points=" 518 315 523 305 528 315 523 313" /><path style="fill:none; stroke:#000000;stroke-width:1" d="M779.0 296.0 L574.0 465.0" /><polygon style="fill:#000000; stroke:#000000;" points=" 585 462 574 465 579 455 580 460" /><path style="fill:none; stroke:#000000;stroke-width:1" d="M576.0 270.0 L779.0 270.0" /><polygon style="fill:#000000; stroke:#000000;" points=" 769 265 779 270 769 275 771 270" /><path style="fill:none; stroke:#000000;stroke-width:1" d="M810.0 322.0 L812.0 708.0" /><polygon style="fill:#000000; stroke:#000000;" points=" 817 698 812 708 807 698 812 700" /><path style="fill:none; stroke:#000000;stroke-width:1" d="M840.0 271.0 L1083.0 271.0 L1083.0 840.0" /><polygon style="fill:#000000; stroke:#000000;" points=" 1088 830 1083 840 1078 830 1083 832" /><path style="fill:none; stroke:#000000;stroke-width:1" d="M866.0 737.0 L899.0 737.0" /><polygon style="fill:#000000; stroke:#000000;" points=" 889 732 899 737 889 742 891 737" /><path style="fill:none; stroke:#000000;stroke-width:1" d="M1136.0 876.0 L1171.0 876.0" /><polygon style="fill:#000000; stroke:#000000;" points=" 1161 871 1171 876 1161 881 1163 876" /><path style="fill:none; stroke:#000000;stroke-width:1" d="M782.0 322.0 L705.0 465.0" /><polygon style="fill:#000000; stroke:#000000;" points=" 714 459 705 465 705 454 709 458" /><path style="fill:none; stroke:#000000;stroke-width:1" d="M149.0 122.0 L149.0 219.0" /><polygon style="fill:#000000; stroke:#000000;" points=" 154 209 149 219 144 209 149 211" /><path style="fill:none; stroke:#000000;stroke-width:1" d="M180.0 270.0 L469.0 270.0" /><polygon style="fill:#000000; stroke:#000000;" points=" 459 265 469 270 459 275 461 270" /><path style="fill:none; stroke:#000000;stroke-width:1" d="M154.0 322.0 L156.0 344.0 L349.0 344.0" /><polygon style="fill:#000000; stroke:#000000;" points=" 339 339 349 344 339 349 341 344" /><path style="fill:none; stroke:#000000;stroke-width:1" d="M682.0 550.0 L682.0 584.0 L402.0 584.0 L402.0 380.0" /><polygon style="fill:#000000; stroke:#000000;" points=" 397 390 402 380 407 390 402 388" /><path style="fill:none; stroke:#000000;stroke-width:1" d="M455.0 345.0 L652.0 345.0 L779.0 285.0" /><polygon style="fill:#000000; stroke:#000000;" points=" 768 285 779 285 772 294 772 288" /><path style="fill:none; stroke:#000000;stroke-width:1" d="M840.0 271.0 L965.0 271.0 L972.0 919.0" /><polygon style="fill:#000000; stroke:#000000;" points=" 977 909 972 919 967 909 972 911" /><path style="fill:none; stroke:#000000;stroke-width:1" d="M1025.0 954.0 L1072.0 954.0" /><polygon style="fill:#000000; stroke:#000000;" points=" 1062 949 1072 954 1062 959 1064 954" /><defs><linearGradient xmlns:xlink="http://www.w3.org/1999/xlink" xlink:href="#linearGradient66FF6696FF96B6FFB6" id="linearGradient66FF6696FF96B6FFB6_2079193036" x1="0" y1="88.0" x2="0" y2="123.0" gradientUnits="userSpaceOnUse" xlink:type="simple" xlink:actuate="onLoad" xlink:show="other" /><linearGradient id="linearGradient66FF6696FF96B6FFB6"><stop style="stop-color:#66FF66;stop-opacity:1;" offset="0.0" id="stop66FF66" /><stop style="stop-color:#96FF96;stop-opacity:1;" offset="0.5" id="stop96FF96" /><stop style="stop-color:#B6FFB6;stop-opacity:1;" offset="1.0" id="stopB6FFB6" /></linearGradient><linearGradient xmlns:xlink="http://www.w3.org/1999/xlink" xlink:href="#linearGradientF8FBFEEDF5FCDEEDFAD4E7F8E2E5E9" id="linearGradientF8FBFEEDF5FCDEEDFAD4E7F8E2E5E9_1965688513" x1="0" y1="466.0" x2="0" y2="572.0" gradientUnits="userSpaceOnUse" xlink:type="simple" xlink:actuate="onLoad" xlink:show="other" /><linearGradient id="linearGradientF8FBFEEDF5FCDEEDFAD4E7F8E2E5E9"><stop style="stop-color:#F8FBFE;stop-opacity:1;" offset="0.0" id="stopF8FBFE" /><stop style="stop-color:#EDF5FC;stop-opacity:1;" offset="0.25" id="stopEDF5FC" /><stop style="stop-color:#DEEDFA;stop-opacity:1;" offset="0.5" id="stopDEEDFA" /><stop style="stop-color:#D4E7F8;stop-opacity:1;" offset="0.75" id="stopD4E7F8" /><stop style="stop-color:#E2E5E9;stop-opacity:1;" offset="1.0" id="stopE2E5E9" /></linearGradient><linearGradient xmlns:xlink="http://www.w3.org/1999/xlink" xlink:href="#linearGradientF8FBFEEDF5FCDEEDFAD4E7F8E2E5E9" id="linearGradientF8FBFEEDF5FCDEEDFAD4E7F8E2E5E9_1897241788" x1="0" y1="235.0" x2="0" y2="341.0" gradientUnits="userSpaceOnUse" xlink:type="simple" xlink:actuate="onLoad" xlink:show="other" /><linearGradient xmlns:xlink="http://www.w3.org/1999/xlink" xlink:href="#linearGradientFAFBFCFFFFCC" id="linearGradientFAFBFCFFFFCC_873925882" x1="0" y1="220.0" x2="0" y2="280.0" gradientUnits="userSpaceOnUse" xlink:type="simple" xlink:actuate="onLoad" xlink:show="other" /><linearGradient id="linearGradientFAFBFCFFFFCC"><stop style="stop-color:#FAFBFC;stop-opacity:1;" offset="0.0" id="stopFAFBFC" /><stop style="stop-color:#FFFFCC;stop-opacity:1;" offset="1.0" id="stopFFFFCC" /></linearGradient><linearGradient xmlns:xlink="http://www.w3.org/1999/xlink" xlink:href="#linearGradientF8FBFEEDF5FCDEEDFAD4E7F8E2E5E9" id="linearGradientF8FBFEEDF5FCDEEDFAD4E7F8E2E5E9_542170659" x1="0" y1="709.0" x2="0" y2="815.0" gradientUnits="userSpaceOnUse" xlink:type="simple" xlink:actuate="onLoad" xlink:show="other" /><linearGradient xmlns:xlink="http://www.w3.org/1999/xlink" xlink:href="#linearGradientFF6666FF9696FFB6B6" id="linearGradientFF6666FF9696FFB6B6_99211494" x1="0" y1="720.0" x2="0" y2="755.0" gradientUnits="userSpaceOnUse" xlink:type="simple" xlink:actuate="onLoad" xlink:show="other" /><linearGradient id="linearGradientFF6666FF9696FFB6B6"><stop style="stop-color:#FF6666;stop-opacity:1;" offset="0.0" id="stopFF6666" /><stop style="stop-color:#FF9696;stop-opacity:1;" offset="0.5" id="stopFF9696" /><stop style="stop-color:#FFB6B6;stop-opacity:1;" offset="1.0" id="stopFFB6B6" /></linearGradient><linearGradient xmlns:xlink="http://www.w3.org/1999/xlink" xlink:href="#linearGradientF8FBFEEDF5FCDEEDFAD4E7F8E2E5E9" id="linearGradientF8FBFEEDF5FCDEEDFAD4E7F8E2E5E9_1480873115" x1="0" y1="841.0" x2="0" y2="947.0" gradientUnits="userSpaceOnUse" xlink:type="simple" xlink:actuate="onLoad" xlink:show="other" /><linearGradient xmlns:xlink="http://www.w3.org/1999/xlink" xlink:href="#linearGradientFF6666FF9696FFB6B6" id="linearGradientFF6666FF9696FFB6B6_1413018549" x1="0" y1="859.0" x2="0" y2="894.0" gradientUnits="userSpaceOnUse" xlink:type="simple" xlink:actuate="onLoad" xlink:show="other" /><linearGradient xmlns:xlink="http://www.w3.org/1999/xlink" xlink:href="#linearGradientF8FBFEEDF5FCDEEDFAD4E7F8E2E5E9" id="linearGradientF8FBFEEDF5FCDEEDFAD4E7F8E2E5E9_1925160663" x1="0" y1="466.0" x2="0" y2="571.0" gradientUnits="userSpaceOnUse" xlink:type="simple" xlink:actuate="onLoad" xlink:show="other" /><linearGradient xmlns:xlink="http://www.w3.org/1999/xlink" xlink:href="#linearGradientFAFBFCFFFFCC" id="linearGradientFAFBFCFFFFCC_970610318" x1="0" y1="220.0" x2="0" y2="280.0" gradientUnits="userSpaceOnUse" xlink:type="simple" xlink:actuate="onLoad" xlink:show="other" /><linearGradient xmlns:xlink="http://www.w3.org/1999/xlink" xlink:href="#linearGradientF8FBFEEDF5FCDEEDFAD4E7F8E2E5E9" id="linearGradientF8FBFEEDF5FCDEEDFAD4E7F8E2E5E9_1128283554" x1="0" y1="310.0" x2="0" y2="415.0" gradientUnits="userSpaceOnUse" xlink:type="simple" xlink:actuate="onLoad" xlink:show="other" /><linearGradient xmlns:xlink="http://www.w3.org/1999/xlink" xlink:href="#linearGradientF8FBFEEDF5FCDEEDFAD4E7F8E2E5E9" id="linearGradientF8FBFEEDF5FCDEEDFAD4E7F8E2E5E9_1349962532" x1="0" y1="920.0" x2="0" y2="1025.0" gradientUnits="userSpaceOnUse" xlink:type="simple" xlink:actuate="onLoad" xlink:show="other" /><linearGradient xmlns:xlink="http://www.w3.org/1999/xlink" xlink:href="#linearGradientFF6666FF9696FFB6B6" id="linearGradientFF6666FF9696FFB6B6_1588707035" x1="0" y1="937.0" x2="0" y2="972.0" gradientUnits="userSpaceOnUse" xlink:type="simple" xlink:actuate="onLoad" xlink:show="other" /></defs></svg>
